  <svg xmlns="http://www.w3.org/2000/svg" viewBox="0 0 400 400" preserveAspectRatio="xMidYMid meet" aria-hidden="true">
  <g transform="translate(0.000000,400.000000) scale(0.100000,-0.100000)" fill="#7f9a89" stroke="">
    <path d="M1971 3355 c-159 -29 -315 -142 -387 -280 -37 -70 -84 -213 -84 -256 0 -33 -8 -35 -53 -13 -66 34 -106 74 -126 127 -11 31 -21 46 -24 37 -3 -8 -10 -31 -17 -50 -6 -19 -14 -78 -17 -131 l-6 -97 54 15 c59 16 144 12 219 -10 38 -11 56 -10 125 5 102 22 270 23 373 2 267 -55 474 -210 625 -469 40 -68 130 -159 197 -198 122 -70 268 -97 423 -78 92 11 237 48 237 60 0 4 -21 14 -48 23 -71 26 -211 113 -264 165 -92 90 -87 140 11 129 l55 -7 -19 23 c-61 73 -106 113 -149 134 l-50 23 30 11 c48 19 90 23 113 11 38 -21 23 7 -44 77 -80 85 -162 132 -246 139 -32 3 -59 9 -59 13 0 5 21 22 48 38 64 42 146 62 203 52 24 -5 46 -7 48 -5 7 7 -40 64 -85 104 -130 114 -307 145 -529 92 -44 -11 -81 -18 -83 -16 -7 6 105 83 164 113 107 54 198 77 311 77 55 0 99 3 96 8 -8 13 -113 63 -192 91 -154 55 -356 58 -514 5 -100 -32 -236 -104 -322 -169 l-80 -60 -3 41 c-6 71 40 140 143 216 34 26 28 26 -74 8z m406 -409 c126 -34 174 -75 273 -230 161 -253 294 -446 336 -489 26 -26 45 -49 43 -52 -9 -9 -105 43 -167 90 -81 61 -157 149 -255 296 -141 214 -308 337 -507 377 l-85 17 45 7 c67 10 258 0 317 -16z"/>
          <path
            d="M1201 3083 c-51 -25 -86 -82 -127 -206 -65 -196 -118 -282 -220 -358
   -59 -43 -84 -82 -84 -128 l0 -30 25 23 c25 23 69 42 63 27 -8 -20 -94 -151
   -99 -151 -3 0 -9 42 -13 93 -3 50 -12 142 -19 202 l-12 110 -6 -215 c-5 -191
   -9 -221 -28 -270 -29 -70 -47 -90 -83 -90 -32 0 -32 0 -17 -34 9 -19 9 -32 -1
   -56 -12 -29 -11 -33 16 -61 36 -38 137 -64 193 -50 23 6 22 7 -17 34 -44 28
   -65 73 -42 87 7 4 30 5 51 3 l39 -6 -15 36 c-33 80 -14 113 61 101 44 -6 47
   -5 40 12 -21 52 -19 82 7 108 49 49 180 60 235 19 41 -30 70 -79 78 -129 5
   -37 12 -47 38 -61 49 -25 66 -44 66 -75 0 -36 -29 -64 -111 -108 -33 -17 -59
   -33 -57 -35 2 -2 52 1 112 5 71 6 117 15 133 26 24 15 25 19 21 103 -4 93 -3
   89 -97 264 -29 54 -50 101 -47 105 4 3 31 6 60 6 152 -3 234 -120 225 -322 -2
   -45 -1 -82 3 -82 10 0 73 92 88 128 8 21 11 53 7 89 l-6 55 23 -21 c30 -29 36
   -27 36 13 0 45 -24 112 -56 153 -27 36 -19 42 30 23 31 -11 31 -10 7 39 -42
   81 -117 121 -198 106 l-38 -7 25 29 c14 15 28 29 33 31 39 18 -73 47 -152 39
   -74 -6 -135 -38 -169 -86 -22 -32 -34 -40 -67 -43 -22 -3 -49 -8 -60 -13 -19
   -8 -19 -7 2 16 12 13 34 48 49 78 25 51 27 63 28 195 1 158 6 174 78 252 32
   35 37 44 22 44 -11 0 -34 -8 -53 -17z"
          />
          <path
            d="M1062 2215 c-33 -71 2 -153 92 -214 51 -36 67 -38 107 -14 36 22 36
   29 0 48 -40 20 -69 60 -77 104 -9 47 -29 87 -49 95 -35 13 -62 6 -73 -19z"
          />
          <path
            d="M945 2026 c-86 -194 -67 -472 47 -701 100 -201 345 -422 564 -512
   151 -61 261 -84 435 -90 99 -4 187 -1 240 6 103 15 262 67 355 116 209 111
   414 317 516 520 61 120 124 351 116 425 l-3 30 -100 5 c-154 6 -273 45 -377
   121 l-49 36 8 -28 c14 -55 8 -246 -11 -324 -41 -170 -157 -354 -291 -462 -287
   -232 -722 -243 -1045 -27 -197 132 -334 343 -370 572 -13 78 -9 313 5 350 4
   10 3 17 -4 17 -7 0 -23 -24 -36 -54z"
          />
  </g>
</svg>

  
  